<?xml version="1.0" standalone="no"?>
<!DOCTYPE svg PUBLIC "-//W3C//DTD SVG 20010904//EN"
 "http://www.w3.org/TR/2001/REC-SVG-20010904/DTD/svg10.dtd">
<svg version="1.0" xmlns="http://www.w3.org/2000/svg"
 width="1280.000000pt" height="640.000000pt" viewBox="0 0 1280.000000 640.000000"
 preserveAspectRatio="xMidYMid meet">
<g transform="translate(0.000000,640.000000) scale(0.100000,-0.100000)"
fill="#000000" stroke="none">
<path d="M1896 5020 c-3 -18 -6 -142 -6 -275 0 -241 -4 -291 -21 -263 -5 8 -9
-11 -9 -48 0 -65 -6 -80 -26 -63 -9 7 -14 4 -20 -13 -15 -42 -22 55 -23 289
-1 201 -8 262 -25 217 -3 -9 -6 -58 -6 -110 0 -77 -3 -94 -15 -94 -12 0 -15
-19 -15 -115 0 -98 -3 -120 -22 -156 -18 -36 -23 -39 -33 -26 -11 15 -13 15
-28 -1 -16 -15 -17 -8 -17 114 0 210 -11 346 -27 340 -8 -3 -13 2 -13 14 0 25
-16 34 -24 14 -3 -9 -6 -235 -7 -502 0 -449 -6 -572 -23 -502 -4 20 -26 813
-26 966 0 19 -4 33 -8 30 -5 -3 -12 -101 -16 -218 -4 -117 -9 -228 -12 -245
-11 -59 -24 -23 -24 65 0 115 -18 96 -22 -23 -3 -82 -5 -91 -25 -100 -18 -8
-23 -18 -23 -47 0 -20 -3 -43 -6 -52 -17 -45 -24 17 -24 220 0 130 -4 224 -9
224 -5 0 -12 -12 -15 -27 -9 -43 -26 -588 -27 -858 0 -132 -4 -249 -8 -259 -7
-19 -8 -19 -15 0 -4 10 -10 51 -13 89 -3 44 -12 80 -23 96 -14 19 -20 50 -22
118 -3 53 -9 96 -16 100 -7 4 -15 102 -22 281 -22 551 -23 558 -38 185 -7
-181 -14 -420 -15 -530 -2 -163 -4 -195 -14 -175 -6 14 -15 43 -18 65 l-7 39
-19 -39 -18 -40 -1 30 c0 17 -4 35 -9 40 -22 25 -32 154 -38 483 -3 194 -9
349 -13 345 -17 -19 -30 -196 -31 -418 -3 -373 -13 -650 -24 -648 -5 1 -11 13
-13 25 -4 42 -23 98 -32 98 -4 0 -12 30 -16 67 -4 38 -13 72 -20 78 -11 8 -15
89 -19 395 -3 212 -9 446 -12 520 l-7 135 -8 -120 c-4 -66 -13 -144 -19 -172
-11 -55 -29 -72 -29 -28 0 14 -4 25 -10 25 -6 0 -10 -48 -10 -125 0 -118 -1
-125 -20 -125 -15 0 -20 -7 -20 -25 0 -14 -4 -25 -10 -25 -13 0 -11 -16 -24
175 -10 146 -14 166 -24 142 -17 -41 -32 -332 -33 -667 0 -162 -4 -315 -8
-340 -6 -39 -8 -43 -17 -25 -11 20 -22 65 -30 119 -2 17 -8 32 -13 35 -5 3
-12 44 -15 91 -3 47 -11 130 -16 185 -6 55 -13 201 -16 325 -4 143 -10 230
-17 239 -22 26 -27 -40 -32 -404 -3 -198 -8 -380 -11 -404 -5 -42 -6 -43 -21
-22 -8 12 -20 20 -26 18 -7 -2 -21 32 -35 87 -22 83 -24 121 -30 413 -4 177
-10 324 -13 327 -3 4 -12 -1 -20 -10 -15 -18 -26 -325 -28 -791 -1 -222 -9
-269 -31 -180 -5 23 -15 56 -21 72 -15 40 -38 231 -39 325 0 52 -3 70 -10 60
-5 -8 -10 -26 -11 -40 l-1 -25 -8 25 c-4 14 -9 54 -10 90 -2 89 -11 110 -28
67 -31 -75 -31 -74 -31 -39 -1 21 -6 32 -16 32 -8 0 -15 -6 -15 -12 0 -9 -4
-8 -10 2 -5 8 -10 35 -10 60 0 33 -3 41 -10 30 -14 -21 -14 -1843 0 -1835 5 3
10 39 11 78 2 118 13 135 28 42 7 -44 17 -105 23 -135 6 -30 13 -73 17 -96 4
-22 15 -51 24 -64 16 -24 17 -20 18 90 1 63 5 205 9 315 l6 200 2 -179 c1 -99
5 -177 8 -174 3 4 10 71 15 150 7 104 14 146 24 154 10 7 15 30 15 68 0 43 5
61 21 77 11 11 22 19 24 17 2 -2 6 -191 10 -420 4 -230 12 -418 16 -418 5 0
10 57 11 128 2 116 2 119 7 42 4 -74 6 -60 17 120 10 185 26 341 41 410 5 23
7 22 27 -20 l21 -45 5 49 c3 27 10 51 16 53 9 3 13 -70 18 -264 7 -332 14
-435 30 -430 7 2 13 63 16 189 3 116 9 190 16 199 7 8 15 66 19 129 7 127 29
231 51 243 8 4 14 22 14 39 0 17 3 28 7 24 5 -4 11 -191 14 -414 4 -290 9
-416 18 -437 16 -38 30 -18 32 45 1 55 12 89 23 71 4 -6 16 -9 27 -6 14 5 19
2 19 -14 0 -11 4 -22 9 -25 10 -7 22 -83 30 -195 6 -89 26 -121 37 -62 4 17
10 28 15 25 5 -3 9 48 10 113 2 300 16 642 26 655 6 7 15 36 19 63 4 28 9 44
11 38 9 -26 23 -12 23 21 0 19 5 47 10 62 26 66 32 2 38 -385 5 -288 10 -394
19 -399 7 -4 14 -38 16 -77 1 -39 4 47 5 190 2 150 9 311 17 380 8 66 15 137
15 159 0 32 2 36 14 27 8 -6 17 -32 21 -57 9 -63 29 -52 33 18 2 31 9 61 16
67 10 9 14 -61 19 -371 4 -237 11 -386 17 -392 5 -5 10 -53 10 -105 0 -52 2
-92 5 -89 3 2 9 163 14 357 5 228 12 356 19 360 6 3 14 47 18 96 5 65 11 95
24 106 12 12 19 41 23 95 15 176 37 161 37 -24 0 -75 3 -275 7 -444 6 -290 7
-308 25 -308 16 0 18 10 18 123 0 120 12 197 30 197 6 0 10 -42 10 -96 0 -81
2 -95 15 -90 11 4 15 -2 15 -23 0 -16 7 -34 15 -41 8 -7 16 -27 16 -44 l2 -31
6 30 c3 17 8 -17 11 -82 l5 -111 21 17 c21 17 22 26 29 337 4 175 9 328 12
339 l6 20 8 -20 c4 -11 8 -144 9 -295 1 -258 9 -352 33 -376 4 -4 7 -40 7 -81
0 -40 4 -73 9 -73 8 0 21 139 21 234 0 37 3 47 10 36 17 -25 28 6 36 94 7 78
7 79 24 58 14 -17 19 -49 24 -149 8 -152 14 -195 26 -188 5 3 10 -11 12 -32 2
-20 8 -38 15 -40 8 -3 13 47 17 184 3 103 9 215 14 248 l9 60 2 -46 c1 -38 4
-47 19 -45 13 1 18 -8 20 -41 4 -48 19 -58 24 -15 2 15 7 -72 11 -193 4 -120
10 -221 13 -224 12 -12 24 27 24 77 0 34 5 59 15 68 12 13 15 47 15 179 0 90
4 166 8 169 5 3 15 -27 22 -67 6 -40 14 -76 15 -82 2 -5 4 58 5 140 1 83 4
144 7 137 12 -29 23 4 23 69 0 39 4 69 10 69 6 0 10 -39 10 -97 0 -54 3 -142
7 -196 5 -79 9 -97 21 -95 10 2 18 -7 22 -22 7 -27 20 76 20 160 l0 45 15 -29
c8 -15 15 -43 15 -62 0 -40 20 -57 21 -17 1 78 17 255 23 261 19 18 26 -40 28
-223 2 -177 3 -164 8 114 4 239 8 315 18 319 8 2 12 -11 12 -50 0 -42 4 -56
20 -66 17 -10 20 -23 20 -86 l0 -75 29 1 28 1 7 100 c8 110 10 119 30 111 17
-6 25 -48 35 -174 4 -52 9 -93 10 -90 1 3 6 47 10 97 7 88 14 113 27 101 3 -3
9 -53 13 -109 l8 -104 2 108 c0 63 5 107 11 107 5 0 13 18 16 40 4 22 10 40
14 40 13 0 20 -59 20 -171 0 -90 3 -109 15 -109 12 0 15 -17 16 -87 0 -49 4
-97 9 -108 7 -19 8 -18 14 5 3 14 10 102 14 195 7 122 9 145 11 83 0 -51 5
-88 11 -88 6 0 10 19 10 43 1 23 7 53 15 67 10 17 14 57 15 127 0 57 4 105 10
108 6 3 11 36 12 73 2 64 13 -166 17 -333 2 -72 3 -78 15 -56 13 23 14 23 23
-25 9 -42 11 -25 13 116 1 91 6 179 10 195 7 30 7 30 13 5 4 -14 8 -88 9 -165
3 -140 16 -202 29 -140 4 17 7 86 8 155 3 175 24 425 36 425 6 0 11 -18 13
-40 2 -22 8 -44 13 -49 5 -6 9 -28 10 -50 l1 -41 8 40 c4 22 11 86 15 143 4
56 11 102 16 102 5 0 10 -1 10 -2 1 -2 7 -219 13 -484 9 -401 13 -484 26 -499
13 -16 16 11 22 261 6 252 14 377 34 486 7 41 24 42 24 3 0 -13 4 -26 9 -29 4
-3 11 26 13 65 5 71 19 102 33 78 4 -6 12 -192 16 -412 5 -220 13 -405 18
-410 5 -5 7 -34 4 -65 -2 -32 -1 -82 4 -112 7 -40 11 35 16 281 5 262 10 346
21 380 9 24 16 73 16 109 0 36 3 75 6 88 6 20 8 21 18 7 9 -13 14 8 24 101 13
119 16 133 29 120 4 -4 11 -213 16 -464 9 -482 18 -694 28 -677 4 6 11 156 15
335 5 179 10 303 12 275 2 -27 7 -54 13 -59 5 -6 9 -45 9 -89 0 -74 1 -78 20
-72 18 6 20 2 20 -49 0 -54 11 -73 24 -40 3 9 7 68 8 132 1 68 4 20 7 -115 4
-156 10 -236 18 -244 23 -23 33 3 33 89 0 171 22 637 31 647 5 5 10 81 11 170
1 129 4 95 13 -180 8 -226 13 -303 15 -230 l3 110 7 -115 c4 -63 8 -177 9
-253 1 -89 5 -136 11 -132 6 3 10 36 10 73 0 69 18 126 21 67 2 -44 17 46 18
108 1 26 6 47 11 47 6 0 10 -42 10 -106 0 -67 4 -103 10 -99 6 3 10 17 10 30
0 13 5 25 12 27 7 3 14 41 18 96 4 51 12 98 18 104 7 7 12 27 12 45 0 22 5 33
14 33 10 0 16 13 19 38 2 20 5 -1 6 -48 1 -47 5 -103 10 -125 7 -38 7 -37 14
30 4 38 11 71 17 73 5 2 10 21 10 42 0 20 3 52 6 70 10 47 24 17 24 -52 0 -31
5 -69 12 -85 12 -27 13 -25 18 37 l7 65 1 -53 c3 -87 23 -246 33 -256 5 -6 9
-18 9 -28 0 -10 5 -18 10 -18 6 0 10 19 10 43 0 89 13 208 21 195 5 -7 9 -57
9 -111 0 -88 2 -98 18 -95 12 2 18 15 20 47 4 54 20 74 45 56 14 -10 17 -31
17 -128 0 -129 15 -164 25 -60 4 38 13 118 21 178 9 61 19 170 23 243 7 121
19 170 35 144 3 -5 9 -81 12 -168 4 -87 10 -150 14 -139 10 30 20 -32 20 -134
1 -70 3 -83 13 -70 7 9 18 14 25 12 9 -4 12 21 13 99 1 92 12 211 19 198 1 -3
5 -75 9 -160 5 -131 8 -152 19 -133 12 22 28 103 40 203 l6 55 6 -55 c4 -47 8
-55 25 -55 16 0 21 -8 23 -40 5 -67 22 -65 22 2 0 34 5 65 10 68 6 3 11 0 11
-7 4 -47 18 89 20 197 l3 130 6 -90 6 -90 5 80 5 80 3 -100 c4 -167 18 -202
22 -55 l2 125 7 -155 c8 -173 18 -270 30 -270 11 0 30 168 38 340 l7 155 6
-120 c4 -66 7 -177 8 -247 1 -127 1 -128 21 -111 15 13 20 30 20 65 0 57 20
129 35 125 15 -5 23 -87 24 -262 1 -93 5 -154 10 -145 5 8 14 96 21 195 8 115
18 187 27 200 9 14 13 60 13 165 1 107 4 150 14 163 14 17 15 17 21 -4 4 -13
11 -59 16 -104 5 -44 11 -98 15 -120 7 -37 8 -38 15 -15 4 14 8 45 8 70 2 60
14 79 29 45 7 -14 13 -40 13 -58 4 -85 38 232 38 361 1 62 4 83 14 80 6 -3 16
-29 20 -59 19 -122 24 -146 26 -114 1 17 5 36 10 44 10 15 13 7 26 -57 5 -23
11 -32 21 -28 11 4 14 -8 14 -63 0 -49 4 -72 15 -81 13 -11 15 -7 15 28 0 39
1 41 23 33 17 -6 23 -18 27 -56 8 -76 28 -69 33 12 l3 68 2 -76 c1 -42 9 -93
17 -112 8 -20 16 -65 17 -99 l1 -63 7 65 c4 36 9 135 11 220 l3 155 7 -190 c3
-104 7 -217 8 -250 3 -117 18 -31 25 140 3 94 10 186 15 205 8 34 8 32 16 -30
8 -64 9 -64 21 -35 l12 30 10 -40 c21 -81 32 -161 32 -239 1 -73 2 -79 15 -62
10 13 15 44 15 94 0 62 2 72 14 63 8 -7 16 -42 19 -89 3 -42 13 -97 21 -122
l15 -45 0 41 c1 38 23 74 40 66 3 -1 8 28 11 65 3 40 10 68 18 71 9 3 12 -19
12 -85 0 -48 5 -95 10 -103 6 -10 10 40 11 150 0 102 4 157 9 145 7 -17 9 -15
9 12 1 17 6 35 11 38 6 3 10 46 10 96 0 70 3 89 14 89 8 0 16 5 18 12 8 22 28
-3 28 -35 0 -20 8 -39 20 -50 17 -14 20 -29 20 -109 0 -64 3 -88 10 -78 5 8
10 40 10 71 0 31 3 59 6 62 13 13 44 -14 44 -38 0 -29 19 -43 31 -24 6 10 9 7
9 -11 0 -14 7 -36 15 -50 8 -14 15 -50 16 -80 l2 -55 10 58 c6 31 14 57 19 57
4 0 8 -27 8 -60 0 -47 3 -58 14 -54 11 4 16 36 20 132 3 70 9 163 14 207 l9
80 1 -70 c3 -86 10 -118 27 -111 16 6 25 -15 25 -56 0 -23 4 -29 15 -24 13 4
15 -7 15 -69 0 -40 6 -86 12 -102 12 -25 13 -18 18 72 4 55 7 81 8 58 1 -23 6
-44 11 -47 4 -3 11 -53 15 -112 8 -131 18 -155 41 -100 12 29 21 37 35 33 14
-3 19 2 24 25 3 16 10 27 15 24 13 -8 21 45 21 138 0 44 4 87 9 94 12 19 21
-69 22 -213 0 -66 4 -129 9 -140 5 -12 9 46 9 152 l1 171 24 -11 c20 -9 25
-21 30 -71 3 -32 6 -82 6 -110 0 -29 4 -56 9 -62 5 -5 11 -18 14 -29 3 -11 6
5 8 35 3 54 3 53 8 -20 5 -57 8 -21 14 150 5 124 11 236 14 248 10 43 23 1 24
-83 2 -77 2 -76 9 33 6 90 10 115 24 125 17 13 30 73 43 195 13 130 21 20 27
-370 7 -427 11 -512 27 -503 4 3 10 -18 12 -47 2 -29 4 60 5 197 2 138 7 282
13 320 5 39 13 105 17 147 12 126 32 122 41 -9 l7 -88 8 94 c8 97 19 141 34
141 5 0 11 -160 14 -355 4 -231 10 -360 17 -368 6 -8 12 -73 14 -153 2 -131 3
-129 5 51 5 295 18 525 31 538 6 6 11 42 11 81 0 39 3 95 7 125 6 49 7 52 16
30 9 -21 11 -18 18 31 4 30 11 81 14 113 4 39 11 57 20 57 12 0 15 -72 19
-427 6 -448 17 -777 27 -787 11 -11 19 171 19 415 0 219 6 270 26 238 4 -7 9
-54 12 -105 4 -73 8 -91 18 -87 11 4 14 -6 14 -38 0 -56 15 -82 24 -45 15 61
26 7 26 -132 0 -81 4 -153 9 -160 23 -36 29 30 40 403 12 400 20 488 46 514
10 11 15 11 15 3 0 -7 4 -12 9 -12 4 0 11 39 14 88 7 98 15 134 28 126 5 -3 9
-74 9 -157 0 -259 20 -891 29 -900 10 -10 21 176 21 369 0 137 20 397 36 459
10 40 24 18 25 -38 0 -29 4 -70 8 -92 6 -35 8 -27 15 60 8 103 20 150 34 141
5 -3 12 -210 16 -460 5 -342 10 -462 20 -480 11 -22 14 5 19 192 4 119 7 274
7 344 0 99 3 130 15 142 11 10 15 36 15 88 0 90 8 122 25 108 9 -7 14 19 24
112 6 67 14 124 16 127 16 16 21 -55 27 -442 7 -476 16 -695 29 -703 5 -3 10
73 10 168 2 234 11 360 27 366 9 3 12 -15 12 -65 0 -122 60 -238 72 -138 2 17
6 -55 10 -159 4 -104 11 -193 15 -197 8 -8 36 370 50 689 3 78 10 142 15 142
9 0 9 12 17 -405 5 -275 8 -320 21 -320 13 0 15 -29 18 -188 1 -119 6 -186 12
-182 6 4 10 115 10 288 0 155 3 368 8 472 l7 190 8 -165 c10 -210 13 -239 21
-247 3 -3 7 74 8 173 1 113 3 140 5 74 2 -78 8 -115 22 -145 14 -29 21 -72 25
-160 4 -66 10 -133 15 -150 8 -27 10 -25 12 25 l2 55 6 -45 6 -45 8 40 c4 22
7 92 7 155 0 102 2 117 19 127 18 11 20 8 27 -50 l9 -62 6 55 6 55 1 -63 c1
-39 6 -61 12 -57 6 3 10 18 10 32 0 15 3 23 8 19 4 -4 10 -53 13 -109 l5 -102
2 142 c1 78 6 144 11 147 12 8 21 -18 21 -60 0 -24 5 -34 15 -34 8 0 15 5 15
10 0 6 5 10 10 10 6 0 10 -27 10 -62 0 -34 3 -58 7 -54 12 12 24 108 44 341
19 235 36 195 38 -89 0 -104 4 -187 7 -184 3 3 9 28 14 55 l8 48 2 -40 c1 -22
5 -49 10 -60 6 -15 9 -7 9 30 1 28 4 74 8 104 5 46 8 51 15 31 5 -13 12 -67
15 -119 7 -110 21 -98 23 19 1 92 16 259 26 285 6 15 10 11 20 -21 12 -38 12
-39 14 -9 4 48 18 -57 19 -142 1 -71 12 -99 26 -65 5 9 11 82 15 162 4 80 7
117 8 83 2 -66 18 -85 29 -32 6 31 17 29 26 -6 3 -11 6 5 7 35 4 126 21 166
34 80 3 -19 10 -60 15 -90 5 -30 10 -96 10 -146 1 -124 12 -244 22 -244 5 0 9
100 10 223 1 122 4 247 8 277 l7 55 8 -52 c9 -62 26 -80 26 -29 0 19 5 38 10
41 6 3 10 42 10 86 0 43 4 79 9 79 13 0 21 -132 22 -364 1 -116 5 -240 9 -276
l7 -65 2 60 c2 57 19 124 20 83 1 -10 6 -18 11 -18 6 0 10 86 10 238 0 254 13
334 25 161 4 -57 10 -122 15 -144 l8 -40 1 37 c0 20 6 38 13 40 6 2 13 31 15
64 6 84 12 109 24 97 6 -6 14 -95 18 -204 4 -107 9 -159 9 -117 1 42 6 79 11
82 11 7 21 -16 22 -52 3 -60 17 80 18 177 1 57 4 101 9 97 4 -4 11 -65 15
-134 4 -70 11 -172 15 -227 l7 -100 7 85 c5 47 8 177 8 290 0 181 19 432 33
447 3 3 8 -17 12 -44 8 -62 12 -73 25 -73 5 0 10 22 10 50 0 28 4 50 9 50 5 0
13 10 17 22 7 22 7 22 14 3 4 -11 11 -213 14 -448 4 -235 10 -435 13 -443 10
-28 23 -13 24 29 3 211 29 617 44 685 3 12 12 22 20 22 12 0 15 14 15 61 0 34
4 58 9 54 5 -3 13 0 17 7 19 31 27 -69 35 -477 12 -586 14 -637 19 -395 l4
205 6 -145 c5 -142 5 -139 13 122 5 191 11 278 21 305 8 21 17 87 19 148 3 66
9 111 16 113 6 2 11 26 11 54 0 27 6 62 14 76 8 15 18 38 23 52 10 25 23 -368
23 -681 0 -186 10 -335 22 -317 5 7 6 56 2 109 -4 67 -3 98 5 103 6 4 11 1 11
-6 1 -7 8 3 18 22 12 24 24 35 40 36 20 1 22 -4 22 -47 0 -56 7 -79 25 -79 10
0 15 -41 20 -165 4 -91 11 -165 15 -165 8 0 20 208 20 358 0 58 4 101 9 98 5
-3 12 76 15 182 4 103 11 195 16 204 6 10 11 80 12 155 2 129 3 125 8 -62 3
-110 8 -192 13 -182 4 9 10 25 15 35 4 9 8 -85 10 -210 3 -274 16 -300 38 -78
3 30 10 59 15 65 5 5 9 27 9 50 0 22 5 47 10 55 6 10 10 -36 10 -140 0 -85 4
-161 9 -169 17 -26 34 30 39 126 4 85 7 94 32 117 l28 24 7 -74 c4 -41 10 -76
14 -79 5 -2 11 34 14 81 3 47 10 91 15 97 5 7 13 30 16 51 l7 39 15 -28 c8
-15 14 -53 14 -84 0 -87 19 -101 21 -16 2 70 2 70 9 -25 4 -52 9 -187 11 -300
2 -196 3 -200 9 -90 4 63 8 134 9 158 1 28 5 42 15 42 15 0 25 77 28 220 1 83
2 82 8 -35 4 -66 8 -138 9 -160 l2 -40 23 26 c20 24 24 42 31 140 4 63 12 120
18 128 12 15 13 9 34 -284 l6 -90 14 85 c8 47 17 148 21 225 6 132 7 136 13
65 5 -74 5 -74 7 31 2 112 9 169 22 169 13 0 19 -41 26 -183 4 -76 10 -133 14
-127 7 11 19 -133 21 -240 1 -65 17 -41 18 27 1 33 4 41 16 37 12 -5 15 3 16
37 1 24 4 55 8 69 7 22 9 20 15 -20 3 -25 7 -65 9 -90 2 -34 5 -40 11 -25 4
11 12 28 17 38 5 10 12 55 16 100 6 77 40 198 63 221 7 7 10 -27 10 -107 0
-64 4 -117 8 -117 13 0 41 264 53 515 2 36 6 0 11 -90 17 -330 19 -347 33
-342 10 4 14 -15 20 -79 7 -82 24 -122 46 -109 5 4 10 57 10 118 1 62 5 159 9
217 6 102 7 103 8 30 1 -41 5 -139 9 -218 6 -137 7 -142 25 -126 10 10 18 30
18 46 0 16 5 38 10 49 9 15 15 17 30 9 19 -10 20 -22 20 -167 0 -189 16 -197
25 -13 4 69 10 134 15 145 16 38 22 80 30 220 5 77 13 187 19 245 5 58 10 116
10 129 1 13 4 21 9 17 4 -4 10 -76 14 -159 7 -167 16 -230 29 -221 5 3 9 27 9
55 0 27 4 49 9 49 11 0 31 -86 31 -130 0 -16 4 -31 9 -34 13 -8 20 78 22 259
2 152 13 277 26 298 11 19 33 -77 33 -148 0 -52 3 -66 11 -52 14 24 29 21 29
-5 0 -13 9 -34 20 -48 14 -17 20 -41 20 -77 0 -52 13 -77 24 -47 3 9 6 28 6
42 0 15 4 22 8 16 4 -6 15 -13 25 -17 13 -5 17 -18 17 -62 0 -52 10 -69 26
-44 8 14 29 -44 39 -109 l7 -47 13 30 c13 28 13 25 15 -50 1 -44 5 -89 10
-100 7 -19 8 -18 13 5 3 14 9 106 12 205 6 176 16 229 30 166 5 -25 11 -31 25
-26 14 4 19 0 22 -17 2 -15 9 -22 21 -20 9 2 17 -2 17 -8 0 -5 9 -10 20 -10
17 0 20 -7 20 -39 0 -22 5 -43 10 -46 6 -3 10 -51 10 -108 1 -105 11 -137 43
-137 10 0 17 13 22 38 4 29 11 38 26 38 17 0 19 -8 19 -69 0 -43 4 -66 10 -62
6 4 10 58 10 130 0 72 4 125 10 127 5 1 15 69 22 150 7 91 16 146 22 145 6 -1
12 15 14 36 2 20 7 37 13 37 5 0 9 -3 10 -7 4 -39 12 -70 20 -80 6 -6 13 -55
16 -107 3 -53 9 -96 13 -96 14 0 20 31 20 102 0 59 2 67 14 55 8 -7 18 -45 22
-83 4 -38 10 -60 12 -49 10 46 52 63 52 21 0 -14 5 -28 10 -31 6 -3 11 -50 11
-103 2 -142 18 -54 19 103 0 66 5 127 10 135 6 10 10 -51 10 -182 0 -108 4
-199 9 -202 4 -3 10 77 13 178 4 125 10 191 19 207 l14 24 3 -24 c2 -13 12
-25 22 -28 11 -3 21 -18 25 -40 4 -24 10 -33 20 -29 12 4 15 -16 17 -112 3
-134 21 -161 26 -39 2 68 5 77 17 67 11 -10 15 -38 15 -117 0 -95 2 -105 19
-110 14 -3 22 -17 26 -45 10 -56 24 -30 27 47 1 53 2 55 5 15 2 -25 6 -52 9
-60 4 -13 6 -13 14 0 9 13 10 13 11 0 0 -10 3 -8 9 5 5 11 9 109 9 218 1 143
5 207 15 230 23 55 41 584 27 800 -6 98 -11 218 -11 267 0 62 -4 90 -12 92
-10 4 -14 69 -16 269 -1 145 -5 280 -9 299 -6 33 -6 34 -13 10 -5 -14 -9 -74
-11 -135 -1 -60 -4 -97 -6 -82 -4 24 -9 28 -31 25 -20 -2 -27 2 -30 17 -15 90
-32 40 -32 -92 0 -64 -4 -114 -10 -118 -6 -4 -10 6 -10 24 0 28 -15 49 -26 38
-3 -2 -9 -38 -15 -78 -18 -135 -28 -194 -37 -224 l-9 -30 -12 28 c-6 16 -15
25 -21 22 -5 -3 -10 0 -10 7 0 7 -7 63 -15 123 -8 61 -15 127 -15 148 0 23 -4
36 -10 32 -6 -4 -10 -55 -10 -120 0 -65 -4 -116 -10 -120 -7 -4 -10 49 -10
152 0 301 -24 226 -36 -114 -7 -206 -20 -203 -39 12 -7 77 -25 98 -25 29 0
-28 -3 -53 -6 -57 -10 -9 -34 4 -34 19 0 8 -4 14 -9 14 -4 0 -13 -42 -20 -92
-6 -51 -17 -106 -23 -123 -6 -16 -13 -55 -16 -85 -3 -41 -7 -50 -13 -35 -4 11
-8 35 -8 53 -1 19 -7 48 -15 65 -7 18 -19 104 -26 192 -7 98 -16 163 -23 167
-8 5 -13 59 -15 163 -2 85 -8 155 -13 155 -5 0 -10 -53 -10 -117 -1 -68 -4
-103 -8 -83 -6 32 -7 34 -18 15 -11 -18 -12 -18 -13 -2 0 25 -14 21 -30 -8 -7
-14 -17 -25 -22 -25 -4 0 -8 -51 -8 -114 0 -83 -4 -117 -14 -125 -11 -9 -14 1
-19 54 -11 120 -34 103 -36 -27 -1 -37 -6 -79 -11 -94 -6 -15 -14 -63 -17
-106 -6 -85 -23 -117 -23 -46 -1 74 -18 171 -40 215 -13 27 -20 62 -20 98 0
43 -6 64 -25 93 -14 20 -25 48 -25 61 0 40 -17 11 -24 -39 -3 -25 -10 -92 -15
-150 -6 -58 -10 -106 -10 -108 -1 -2 -5 0 -11 3 -5 3 -10 29 -10 58 0 47 -1
50 -16 36 -10 -11 -17 -42 -20 -95 -3 -43 -8 -86 -10 -94 -10 -29 -24 13 -24
72 0 31 -4 60 -10 63 -6 4 -10 -19 -10 -62 -1 -37 -8 -97 -16 -133 -9 -36 -18
-80 -21 -97 -6 -37 -23 -45 -23 -10 0 12 -4 28 -9 36 -10 15 -19 -25 -28 -121
-2 -32 -9 -58 -13 -58 -14 0 -19 49 -25 262 -7 218 -16 300 -35 306 -7 3 -21
13 -32 24 -11 11 -21 18 -22 16 -11 -16 -26 -174 -26 -278 0 -75 -4 -131 -10
-135 -6 -4 -10 23 -10 75 0 45 -5 91 -11 102 -6 12 -15 96 -20 187 -5 91 -14
175 -19 186 -5 11 -14 70 -20 130 -23 241 -25 245 -33 90 -4 -77 -13 -169 -19
-205 -11 -65 -11 -65 -24 -35 -7 17 -15 70 -19 119 -4 49 -11 83 -15 76 -6 -9
-9 -9 -13 1 -2 8 -8 -28 -12 -79 -4 -51 -10 -90 -13 -87 -3 3 -8 38 -11 78 -5
58 -9 72 -23 75 -28 5 -38 -38 -38 -165 0 -101 -2 -114 -15 -103 -13 11 -15
-3 -15 -116 -1 -98 -4 -134 -15 -148 -14 -18 -15 -17 -15 22 0 24 -7 59 -15
80 -9 20 -13 47 -10 59 3 12 1 25 -5 28 -5 3 -10 22 -10 41 0 19 -4 34 -10 34
-5 0 -10 -8 -10 -19 0 -10 -7 -24 -15 -31 -8 -7 -16 -22 -16 -34 -1 -12 -5 -5
-8 14 -4 20 -12 34 -19 32 -15 -3 -13 -13 -22 98 -15 166 -40 279 -40 179 0
-51 -13 -81 -24 -54 -3 9 -6 32 -6 51 0 22 -6 37 -15 40 -10 4 -15 21 -15 53
0 70 -16 83 -23 19 -4 -29 -7 -68 -7 -85 0 -18 -4 -33 -9 -33 -5 0 -11 -102
-13 -227 -5 -216 -14 -293 -33 -264 -4 7 -10 51 -13 97 -2 46 -9 84 -13 84 -5
0 -9 46 -10 103 0 100 -19 250 -32 264 -15 15 -21 -14 -28 -140 -4 -80 -12
-145 -21 -165 -15 -33 -15 -31 -22 85 -9 136 -22 227 -26 178 l-2 -30 -8 30
c-7 29 -8 29 -10 -10 -1 -22 -5 -49 -9 -59 -7 -18 -8 -18 -14 5 -4 13 -7 41
-7 63 0 30 -3 37 -15 32 -12 -4 -15 3 -16 32 -1 20 -5 51 -9 67 -6 23 -8 12
-10 -45 -2 -41 -6 -165 -10 -275 l-6 -200 -4 165 c-3 162 -3 163 -10 70 -4
-52 -8 -147 -9 -211 -1 -90 -4 -119 -16 -129 -13 -11 -15 -3 -15 62 0 106 -10
168 -26 168 -11 0 -14 21 -14 90 0 53 -4 90 -10 90 -6 0 -10 -27 -10 -61 0
-54 -2 -60 -15 -49 -12 10 -15 9 -15 -6 0 -17 -1 -17 -16 -2 -12 12 -20 52
-29 145 -7 74 -14 117 -18 103 -9 -40 -19 -100 -26 -165 -9 -75 -20 -54 -23
45 -4 95 -21 94 -30 -2 -4 -40 -14 -118 -21 -173 -11 -84 -15 -96 -24 -76 -9
22 -10 19 -16 -30 -4 -30 -7 -88 -7 -129 0 -69 -1 -73 -15 -53 -12 17 -16 89
-23 390 -7 276 -10 330 -13 218 l-3 -150 -6 168 c-6 211 -24 225 -28 22 -4
-203 -29 -188 -34 20 -1 78 -2 72 -7 -47 -3 -75 -9 -140 -14 -144 -4 -4 -20
-3 -35 2 -25 9 -27 14 -30 72 -2 34 -7 62 -12 62 -6 0 -10 11 -10 24 0 35 -17
41 -24 9 -3 -16 -8 -236 -12 -491 -5 -366 -9 -460 -19 -452 -7 6 -15 32 -17
58 -3 27 -13 64 -23 83 -14 26 -20 66 -24 166 -4 85 -10 137 -18 145 -8 7 -13
41 -13 88 0 42 -3 139 -7 216 -8 137 -8 138 -14 59 l-5 -80 -4 85 -3 85 -7
-65 c-4 -36 -8 -186 -9 -335 -1 -277 -14 -492 -29 -507 -5 -5 -14 21 -21 59
-7 38 -18 77 -25 88 -7 11 -16 56 -19 101 -3 44 -10 92 -16 106 -5 14 -13 127
-17 252 -4 124 -11 226 -15 226 -5 0 -9 39 -10 88 0 64 -3 80 -10 62 -5 -14
-12 -236 -16 -494 -6 -347 -11 -470 -20 -473 -14 -5 -33 56 -33 105 0 70 -39
7 -41 -67 0 -20 -3 -29 -6 -21 -3 8 -9 17 -14 20 -4 3 -11 147 -16 320 -4 173
-9 295 -11 271 -2 -24 -10 -50 -18 -58 -8 -8 -14 -26 -15 -41 0 -15 -4 -36 -9
-47 -7 -18 -9 -16 -16 13 -4 22 -11 31 -20 28 -11 -4 -14 9 -14 62 0 37 -5 74
-10 82 -7 10 -10 -18 -10 -89 0 -129 -20 -332 -31 -325 -5 3 -9 38 -9 77 0 68
-18 237 -27 247 -13 14 -23 -36 -23 -112 0 -49 -4 -88 -9 -88 -6 0 -12 -15
-14 -32 -2 -18 -5 115 -5 295 -1 216 -5 326 -12 322 -6 -3 -10 -50 -10 -107 0
-85 -2 -99 -15 -94 -21 8 -23 -9 -29 -282 -3 -134 -10 -251 -16 -260 -6 -12
-9 12 -10 80 0 53 -4 100 -10 103 -5 3 -10 28 -10 56 0 27 -4 49 -10 49 -5 0
-10 -17 -10 -37 0 -44 -15 -77 -24 -53 -3 8 -7 98 -10 200 -2 102 -8 205 -13
230 -8 41 -9 35 -16 -70 -4 -63 -7 -142 -7 -176 0 -36 -6 -68 -14 -80 -16 -21
-14 -23 -34 46 -9 33 -10 33 -11 8 -1 -28 -21 -41 -21 -14 0 7 -7 19 -15 26
-11 9 -15 10 -15 1 0 -8 -5 -7 -15 3 -11 10 -15 36 -15 88 -1 66 -2 71 -15 54
-11 -15 -15 -54 -17 -160 -1 -121 -3 -130 -8 -66 -6 72 -6 72 -8 20 -2 -58
-17 -98 -26 -70 -6 22 -26 314 -26 392 0 37 -4 70 -10 73 -5 3 -10 -3 -10 -14
0 -12 -6 -21 -14 -21 -10 0 -17 18 -21 58 -11 87 -22 96 -31 24 -3 -34 -11
-62 -15 -62 -5 0 -10 -96 -10 -212 -1 -117 -5 -226 -9 -243 -7 -30 -7 -30 -13
-5 -3 14 -8 76 -11 138 -13 254 -19 332 -27 332 -12 0 -18 -34 -21 -110 -2
-37 -7 -64 -13 -63 -6 2 -12 110 -15 285 -4 186 -6 233 -8 136 -2 -138 -4
-149 -27 -183 l-24 -37 -4 119 -3 118 -2 -127 c-2 -122 -10 -157 -28 -120 -6
10 -11 -51 -14 -158 l-6 -175 -3 240 -4 240 -8 -132 c-10 -172 -24 -200 -34
-70 -7 95 -18 124 -36 96 -5 -9 -9 16 -9 65 0 116 -10 87 -16 -45 -3 -76 -9
-120 -19 -136 -8 -12 -15 -36 -15 -53 0 -16 -4 -30 -10 -30 -5 0 -11 -17 -11
-37 -1 -21 -3 -30 -6 -20 -4 14 -8 16 -19 6 -9 -7 -15 -34 -16 -73 -3 -95 -15
282 -18 544 -3 268 -12 345 -25 210 -4 -47 -10 -79 -12 -72 -3 6 -9 10 -14 6
-5 -3 -9 -155 -9 -357 0 -393 -9 -727 -20 -727 -4 0 -11 119 -15 265 -4 146
-11 265 -16 265 -5 0 -9 63 -9 140 0 127 -8 167 -24 124 -3 -9 -6 -69 -6 -134
0 -69 -4 -121 -10 -125 -6 -4 -10 37 -10 114 0 67 -4 121 -9 121 -15 0 -21
-42 -21 -157 l0 -113 -25 0 c-17 0 -28 -7 -34 -22 -5 -15 -11 67 -16 215 -4
130 -11 237 -15 237 -13 0 -23 -233 -29 -720 -5 -422 -8 -485 -21 -485 -12 0
-16 19 -20 87 -4 72 -9 90 -25 102 -17 12 -20 29 -23 122 -2 60 -8 114 -12
119 -15 19 -20 102 -21 348 -2 234 -3 247 -20 247 -21 0 -24 -21 -8 -51 8 -15
7 -24 -2 -35 -9 -11 -13 -114 -17 -382 -3 -220 -8 -372 -14 -379 -19 -24 -28
-1 -28 75 -1 72 -2 75 -15 52 -8 -14 -14 -33 -15 -43 0 -10 -6 -17 -12 -15
-24 8 -35 128 -43 455 -4 180 -10 366 -15 413 l-7 85 -2 -74 c0 -40 -6 -112
-11 -160 -6 -47 -14 -285 -18 -529 -4 -280 -11 -443 -17 -445 -5 -1 -11 7 -12
18 -1 11 -5 50 -8 88 -6 55 -10 67 -23 65 -13 -2 -18 6 -20 31 -2 19 -9 43
-17 55 -10 16 -14 103 -19 351 -9 461 -17 688 -26 678 -8 -8 -10 -36 -29 -358
-6 -88 -10 -162 -10 -164 -1 -3 -7 3 -14 13 -17 23 -51 17 -55 -9 -5 -31 -24
-65 -34 -59 -4 3 -8 119 -8 259 0 158 -4 256 -10 260 -5 3 -10 5 -10 3 -12
-79 -23 -367 -28 -742 -5 -352 -10 -480 -19 -483 -7 -3 -14 16 -19 54 -4 31
-14 71 -24 88 -11 20 -19 66 -24 144 -3 63 -11 120 -16 126 -5 6 -13 134 -19
284 -9 253 -17 312 -36 281 -4 -6 -10 -194 -13 -416 -3 -222 -9 -404 -13 -404
-16 0 -29 39 -30 87 -1 26 -4 59 -8 73 -6 22 -8 18 -15 -23 -6 -39 -10 -46
-21 -37 -27 22 -44 244 -46 620 -1 179 -4 307 -6 285 -2 -22 -10 -83 -18 -135
-10 -68 -16 -237 -21 -587 -4 -271 -10 -493 -14 -493 -4 0 -13 45 -20 100 -8
67 -16 100 -25 100 -13 0 -25 70 -25 155 0 28 -5 57 -10 65 -7 10 -10 -15 -10
-80 0 -52 -4 -101 -9 -108 -14 -23 -21 24 -22 168 -1 127 -14 336 -17 279 -2
-18 -9 -28 -24 -32 -30 -8 -32 -5 -39 66 l-6 62 -1 -56 c-2 -40 -6 -59 -17
-63 -12 -4 -15 3 -15 29 0 18 -4 37 -10 40 -6 4 -10 -44 -11 -137 -1 -79 -4
-156 -8 -173 -15 -68 -25 16 -28 240 -4 240 -7 280 -23 270 -6 -3 -11 -50 -11
-103 -1 -53 -4 -87 -6 -74 -2 12 -9 20 -14 17 -5 -4 -9 -1 -9 4 0 6 -4 11 -10
11 -5 0 -11 -15 -11 -32 -2 -31 -2 -31 -6 -5 -6 39 -23 34 -23 -7 0 -19 -4
-38 -10 -41 -6 -3 -10 -51 -10 -110 0 -79 -3 -104 -14 -108 -11 -5 -16 12 -22
81 -8 86 -8 87 -15 37 -4 -27 -8 -82 -8 -122 -1 -39 -5 -74 -10 -77 -5 -4 -12
-29 -15 -56 -3 -28 -9 -73 -12 -100 -7 -60 -24 -56 -24 6 0 32 -4 44 -15 44
-12 0 -15 15 -15 73 0 40 -4 77 -8 83 -10 10 -31 126 -35 194 -3 38 -4 36 -6
-15 -3 -88 -20 -48 -28 67 -8 120 -18 87 -28 -98 -11 -218 -25 -264 -40 -131
-4 31 -10 55 -15 52 -4 -3 -11 -43 -15 -90 -8 -94 -25 -125 -25 -46 0 27 -5
62 -12 78 -11 26 -13 23 -19 -47 -7 -73 -18 -137 -46 -260 -5 -23 -6 -24 -13
-5 -5 11 -9 32 -9 46 -1 15 -7 29 -14 32 -10 4 -16 43 -20 154 -7 164 -16 235
-27 228 -4 -3 -11 5 -15 18 l-7 22 -7 -25 c-7 -24 -7 -24 -14 9 -4 18 -7 50
-7 70 0 25 -6 40 -20 49 -18 11 -20 10 -20 -9 0 -11 -4 -17 -10 -14 -5 3 -10
22 -10 41 0 19 -4 34 -9 34 -11 0 -21 -25 -21 -51 0 -11 -4 -27 -9 -37 -5 -9
-12 -25 -15 -34 -3 -10 -11 -15 -20 -12 -16 6 -24 -37 -32 -176 -3 -47 -10
-89 -15 -94 -5 -6 -9 -26 -10 -45 0 -20 -4 -45 -8 -56 -7 -16 -9 -14 -14 14
-5 23 -11 31 -21 28 -16 -6 -22 27 -31 173 -8 123 -12 143 -30 136 -10 -4 -16
7 -21 39 -3 25 -10 43 -14 40 -10 -6 -24 -134 -28 -272 -2 -46 -4 -51 -22 -46
-14 4 -20 0 -20 -11 0 -9 -4 -16 -9 -16 -5 0 -11 -10 -13 -22 -4 -32 -26 -34
-34 -3 -9 36 -21 20 -27 -35 -3 -25 -10 -65 -17 -90 -6 -25 -14 -71 -17 -102
-3 -32 -9 -58 -13 -58 -4 0 -12 42 -17 93 -8 76 -10 83 -11 39 -2 -45 -5 -55
-22 -59 -11 -3 -20 -12 -20 -21 0 -8 -3 -12 -7 -8 -4 4 -10 91 -13 194 -7 191
-19 254 -45 232 -10 -8 -14 -2 -19 25 -10 53 -26 42 -26 -18 0 -30 -7 -69 -16
-86 -9 -18 -19 -62 -22 -97 -2 -35 -8 -62 -12 -59 -4 2 -10 75 -14 162 -4 87
-12 160 -17 164 -13 7 -29 159 -29 271 0 48 -4 90 -10 93 -5 3 -11 16 -12 28
-3 46 -16 -112 -17 -210 -1 -101 -6 -133 -21 -133 -11 0 -21 54 -27 144 -3 58
-10 87 -24 104 -19 25 -19 24 -20 -184 0 -213 -10 -293 -22 -200 -4 27 -7 113
-7 192 0 84 -4 145 -10 149 -6 4 -10 -15 -10 -50 0 -30 -4 -63 -9 -73 -5 -9
-15 -91 -21 -182 -14 -204 -17 -222 -20 -140 -3 98 -17 131 -21 50 -2 -53 -3
-57 -6 -22 -2 23 -8 40 -12 37 -13 -7 -41 113 -46 198 -5 75 -28 149 -38 117
-2 -8 -9 -31 -16 -51 -6 -19 -11 -45 -11 -57 0 -25 -16 -37 -27 -20 -4 7 -10
71 -13 142 -4 113 -7 129 -22 132 -16 2 -18 -6 -18 -61 0 -35 -4 -67 -10 -70
-5 -3 -10 2 -10 12 0 26 -38 85 -50 78 -6 -4 -10 -61 -10 -135 0 -133 -6 -173
-21 -148 -5 7 -9 -34 -9 -99 0 -116 -15 -187 -30 -148 -8 20 -24 161 -41 355
-13 150 -23 210 -34 213 -6 1 -11 -24 -12 -58 -3 -76 -23 -226 -33 -244 -7
-13 -13 27 -26 182 -6 66 -9 77 -25 77 -17 0 -19 -8 -19 -70 0 -40 -4 -70 -10
-70 -5 0 -10 19 -10 43 0 58 -11 117 -21 117 -5 0 -9 -9 -9 -19 0 -11 -4 -23
-10 -26 -5 -3 -10 -16 -10 -28 -1 -23 -23 -60 -32 -52 -6 6 -18 -217 -18 -337
0 -49 -4 -88 -9 -88 -5 0 -12 28 -15 63 -14 125 -23 192 -24 179 -1 -7 -6 -10
-12 -7 -5 3 -10 50 -11 103 -1 156 -17 78 -20 -98 -2 -104 -4 -127 -6 -68 -3
68 -7 87 -20 92 -22 9 -32 -10 -35 -64 -2 -49 -15 171 -17 283 -1 43 -5 66
-11 62 -5 -3 -10 -17 -10 -30 0 -13 -4 -27 -10 -30 -5 -3 -10 -17 -10 -31 0
-13 -4 -24 -10 -24 -5 0 -10 13 -10 29 0 49 -12 121 -20 116 -7 -5 -12 9 -29
85 -5 23 -10 -35 -16 -175 -5 -115 -12 -196 -15 -180 -4 17 -10 -62 -15 -173
-7 -185 -9 -202 -23 -188 -14 14 -17 79 -24 492 -4 262 -9 479 -12 482 -3 3
-7 -1 -10 -9 -7 -23 -26 -309 -26 -386 0 -39 -4 -75 -10 -78 -6 -4 -10 33 -10
104 0 60 -4 112 -9 115 -10 7 -21 -66 -21 -144 0 -39 -6 -65 -18 -81 -28 -39
-41 -71 -44 -114 -2 -22 -7 95 -12 260 -7 279 -10 315 -20 304 -11 -12 -26
-469 -26 -775 0 -193 -3 -379 -7 -414 -5 -56 -8 -61 -20 -45 -7 11 -13 40 -13
66 0 65 -10 109 -25 109 -20 0 -25 25 -25 134 0 56 -4 106 -10 112 -5 5 -15
126 -22 267 -6 141 -15 257 -20 257 -4 0 -8 19 -8 42 0 23 -2 39 -5 36 -3 -2
-9 -222 -14 -489 -5 -266 -12 -492 -16 -502 -12 -29 -22 -3 -30 75 -5 48 -11
68 -21 68 -7 0 -16 10 -18 23 -3 12 -9 45 -15 72 -19 94 -31 331 -31 623 0
161 -4 292 -8 292 -17 0 -32 -288 -39 -733 -5 -414 -10 -493 -29 -474 -2 2 -7
42 -10 88 -7 109 -11 121 -29 89 -8 -14 -14 -37 -15 -52 0 -16 -4 -28 -9 -28
-17 0 -33 137 -41 345 -3 116 -8 179 -10 140 -1 -38 -4 -61 -7 -50 -10 46 -13
49 -27 30 -13 -18 -14 -18 -19 1 -3 10 -9 42 -12 69 -4 28 -10 45 -12 38 -2
-7 -11 -9 -19 -6 -12 4 -14 -13 -14 -104 0 -61 -3 -151 -6 -201 -6 -76 -9 -90
-20 -81 -10 9 -14 43 -14 132 0 139 -22 239 -50 222 -20 -13 -29 32 -33 168
-5 172 -17 210 -17 54 0 -60 -4 -109 -10 -112 -5 -3 -10 -45 -10 -93 0 -81
-17 -192 -30 -192 -17 0 -40 103 -42 180 l-1 85 -6 -75 c-7 -76 -30 -144 -31
-90 0 15 -4 30 -10 36 -5 5 -11 93 -13 199 l-2 190 -3 -211 c-1 -161 -6 -220
-17 -247 -8 -20 -15 -55 -15 -77 0 -25 -4 -39 -10 -35 -5 3 -10 30 -10 60 0
30 -4 57 -10 60 -5 3 -10 18 -10 33 0 53 -10 69 -36 64 -23 -4 -24 -8 -24 -84
0 -70 -2 -79 -15 -68 -8 7 -15 20 -15 28 0 12 -3 13 -12 4 -7 -7 -16 -12 -20
-12 -4 0 -9 136 -10 303 l-2 302 -6 -297 c-3 -163 -8 -300 -12 -304 -17 -17
-23 14 -25 134 -3 198 -12 269 -34 275 -11 3 -22 13 -26 24 -5 10 -15 18 -23
18 -11 0 -16 14 -18 58 -2 31 -7 57 -11 57 -12 0 -21 -160 -21 -377 0 -192
-11 -254 -23 -125 -4 37 -7 86 -7 109 0 23 -4 45 -10 48 -5 3 -11 50 -11 103
-1 77 -3 87 -8 50 -4 -27 -12 -53 -19 -60 -9 -9 -12 16 -12 114 0 110 -2 128
-20 151 -18 23 -20 40 -20 209 0 127 -4 195 -14 221 l-13 39 -7 -32z m6261
-677 c-2 -32 -3 -8 -3 52 0 61 1 87 3 58 2 -29 2 -78 0 -110z m-6280 -15 c-2
-24 -4 -5 -4 42 0 47 2 66 4 43 2 -24 2 -62 0 -85z m6200 -115 c-3 -10 -5 -4
-5 12 0 17 2 24 5 18 2 -7 2 -21 0 -30z m-4120 -195 c-2 -35 -3 -7 -3 62 0 69
1 97 3 63 2 -35 2 -91 0 -125z m-1190 -5 c-3 -10 -5 -2 -5 17 0 19 2 27 5 18
2 -10 2 -26 0 -35z m1800 -135 c-2 -13 -4 -3 -4 22 0 25 2 35 4 23 2 -13 2
-33 0 -45z m6120 -1365 c-3 -10 -5 -2 -5 17 0 19 2 27 5 18 2 -10 2 -26 0 -35z
m490 -125 c-3 -7 -5 -2 -5 12 0 14 2 19 5 13 2 -7 2 -19 0 -25z"/>
<path d="M8291 4904 c0 -11 3 -14 6 -6 3 7 2 16 -1 19 -3 4 -6 -2 -5 -13z"/>
<path d="M2272 4460 c0 -19 2 -27 5 -17 2 9 2 25 0 35 -3 9 -5 1 -5 -18z"/>
</g>
</svg>
